<?xml version="1.0" encoding="UTF-8" standalone="no"?>
<svg
   xmlns:dc="http://purl.org/dc/elements/1.1/"
   xmlns:cc="http://creativecommons.org/ns#"
   xmlns:rdf="http://www.w3.org/1999/02/22-rdf-syntax-ns#"
   xmlns:svg="http://www.w3.org/2000/svg"
   xmlns="http://www.w3.org/2000/svg"
   xmlns:sodipodi="http://sodipodi.sourceforge.net/DTD/sodipodi-0.dtd"
   xmlns:inkscape="http://www.inkscape.org/namespaces/inkscape"
   width="87"
   height="87"
   viewBox="0 0 87 87"
   fill="none"
   version="1.1"
   id="svg22"
   sodipodi:docname="code-dot-org-logo-inset.svg"
   inkscape:version="1.0.1 (3bc2e813f5, 2020-09-07)"
   inkscape:export-filename="C:\Users\wilkie\Downloads\code-dot-org-logo.png"
   inkscape:export-xdpi="282.48276"
   inkscape:export-ydpi="282.48276">
  <metadata
     id="metadata28">
    <rdf:RDF>
      <cc:Work
         rdf:about="">
        <dc:format>image/svg+xml</dc:format>
        <dc:type
           rdf:resource="http://purl.org/dc/dcmitype/StillImage" />
        <dc:title></dc:title>
      </cc:Work>
    </rdf:RDF>
  </metadata>
  <defs
     id="defs26" />
  <sodipodi:namedview
     pagecolor="#ffffff"
     bordercolor="#666666"
     borderopacity="1"
     objecttolerance="10"
     gridtolerance="10"
     guidetolerance="10"
     inkscape:pageopacity="0"
     inkscape:pageshadow="2"
     inkscape:window-width="1920"
     inkscape:window-height="1057"
     id="namedview24"
     showgrid="false"
     inkscape:zoom="7.2336211"
     inkscape:cx="25.056256"
     inkscape:cy="20.012575"
     inkscape:window-x="-8"
     inkscape:window-y="-8"
     inkscape:window-maximized="1"
     inkscape:current-layer="svg22" />
  <rect
     style="opacity:1;fill:#ffffff;fill-opacity:0.97983873;stroke:none;stroke-width:0.964087"
     id="rect859"
     width="69.398155"
     height="69.398155"
     x="8.8009214"
     y="8.8009214"
     ry="5.4660249" />
  <path
     d="m 59.715512,23.081148 c -1.30419,0 -2.378237,0.414145 -3.222141,1.235401 -0.843905,0.821255 -1.26234,1.874131 -1.26234,3.151593 0,1.242434 0.425399,2.267245 1.269303,3.095464 0.843904,0.821256 1.897061,1.235401 3.166364,1.235401 1.276337,0 2.336387,-0.421178 3.187255,-1.256431 0.850867,-0.842287 1.276336,-1.881165 1.276336,-3.137597 0,-1.214299 -0.425469,-2.23911 -1.276336,-3.074363 -0.850868,-0.835323 -1.896991,-1.249468 -3.138441,-1.249468 z"
     fill="#000000"
     id="path2"
     style="fill:#000000;stroke-width:0.703371" />
  <path
     fill-rule="evenodd"
     clip-rule="evenodd"
     d="m 74.096631,37.709221 c 0,2.323304 -1.876101,4.211503 -4.184634,4.211503 H 49.449253 c -2.308533,0 -4.184634,-1.888199 -4.184634,-4.211503 V 17.11489 c 0,-2.323354 1.876101,-4.211517 4.184634,-4.211517 h 20.462744 c 2.308533,0 4.184634,1.888163 4.184634,4.211517 z M 59.652771,21.515867 c 1.764476,0 3.236069,0.561571 4.407744,1.684643 1.171745,1.123072 1.757583,2.533893 1.757583,4.22557 0,1.691607 -0.592801,3.095465 -1.778473,4.211503 -1.185672,1.109005 -2.678155,1.663543 -4.477518,1.663543 -1.722696,0 -3.152438,-0.554538 -4.303223,-1.663543 -1.143751,-1.109075 -1.722625,-2.505899 -1.722625,-4.176404 0,-1.719742 0.578874,-3.137597 1.729589,-4.260669 1.157748,-1.123072 2.622377,-1.684643 4.386923,-1.684643 z"
     fill="#000000"
     id="path4"
     style="fill:#000000;stroke-width:0.703371" />
  <path
     d="m 26.377917,55.313114 h -2.043503 v 8.549332 h 2.092317 c 0.815981,0 1.450632,-0.05613 1.903955,-0.168458 0.453392,-0.112258 0.829977,-0.25265 1.129894,-0.428142 0.299847,-0.175491 0.578875,-0.38608 0.829908,-0.638731 0.809017,-0.821255 1.206562,-1.860134 1.206562,-3.116565 0,-1.23533 -0.411472,-2.239111 -1.241379,-3.018235 -0.306881,-0.287749 -0.655612,-0.526402 -1.053157,-0.715961 -0.397545,-0.189488 -0.767167,-0.30885 -1.122861,-0.372012 -0.348732,-0.05613 -0.913679,-0.09123 -1.701736,-0.09123 z"
     fill="#000000"
     id="path6"
     style="fill:#000000;stroke-width:0.703371" />
  <path
     fill-rule="evenodd"
     clip-rule="evenodd"
     d="m 41.735385,69.885128 c 0,2.323375 -1.876101,4.211503 -4.184634,4.211503 H 17.087993 c -2.308519,0 -4.18462,-1.888128 -4.18462,-4.211503 V 49.290783 c 0,-2.323304 1.876101,-4.211503 4.18462,-4.211503 h 20.462758 c 2.308533,0 4.184634,1.888199 4.184634,4.211503 z M 22.702383,64.803063 V 54.372497 c 0,-0.322848 0.230143,-0.526403 0.543987,-0.526403 h 3.305913 c 1.555223,0 2.782746,0.23162 3.689391,0.701894 0.906715,0.470273 1.625068,1.15817 2.155128,2.070653 0.537023,0.912553 0.802053,1.902266 0.802053,2.976173 0,0.765056 -0.146512,1.502118 -0.439395,2.204012 -0.292954,0.701894 -0.711389,1.319594 -1.26241,1.853101 -0.557914,0.547433 -1.199529,0.961578 -1.938842,1.242364 -0.432432,0.168457 -0.823014,0.280785 -1.185672,0.343948 -0.362658,0.05613 -1.046123,0.08419 -2.05743,0.08419 0,0 -2.706008,-0.007 -3.0757,0 -0.341697,0.007 -0.537023,-0.280715 -0.537023,-0.519369 z"
     fill="#000000"
     id="path8"
     style="fill:#000000;stroke-width:0.703371" />
  <path
     fill-rule="evenodd"
     clip-rule="evenodd"
     d="m 69.911997,74.096631 c 2.308533,0 4.184634,-1.888128 4.184634,-4.211503 V 49.290783 c 0,-2.323304 -1.876101,-4.211503 -4.184634,-4.211503 H 49.449253 c -2.308533,0 -4.184634,1.888199 -4.184634,4.211503 v 20.594345 c 0,2.323375 1.876101,4.211503 4.184634,4.211503 z M 57.999709,63.862446 h 4.268265 c 0.404509,0 0.73235,0.329951 0.73235,0.737062 0,0.407111 -0.327841,0.736992 -0.73235,0.736992 l -0.100582,-2.11e-4 c -0.62389,-0.0011 -3.980586,-0.0068 -5.28358,-0.0068 -0.271994,0 -0.516134,-0.23162 -0.516134,-0.526403 v -10.43753 c 0,-0.273752 0.209253,-0.519439 0.516134,-0.519439 1.28133,0 4.541454,-0.0058 5.131512,-0.0069 l 0.09228,-1.41e-4 c 0.404508,0 0.732279,0.329881 0.732279,0.736992 0,0.407111 -0.327771,0.737062 -0.732279,0.737062 h -4.107897 v 3.502576 c 0,0 3.940495,-0.007 3.954421,-0.007 0.404509,0 0.73235,0.329881 0.73235,0.736992 0,0.400077 -0.320807,0.730029 -0.718353,0.737062 l -3.968418,0.007 z"
     fill="#000000"
     id="path10"
     style="fill:#000000;stroke-width:0.703371" />
  <path
     fill-rule="evenodd"
     clip-rule="evenodd"
     d="m 41.735385,37.709221 c 0,2.323304 -1.876101,4.211503 -4.184634,4.211503 H 17.087993 c -2.308519,0 -4.18462,-1.888199 -4.18462,-4.211503 V 17.11489 c 0,-2.323354 1.876101,-4.211517 4.18462,-4.211517 h 20.462758 c 2.308533,0 4.184634,1.888163 4.184634,4.211517 z M 31.371428,31.040914 c -0.111555,0 -0.313844,0.06316 -0.313844,0.06316 -0.969386,0.449243 -1.959802,0.673899 -2.964075,0.673899 -1.325151,0 -2.413125,-0.407111 -3.263992,-1.21437 -0.850868,-0.814222 -1.276337,-1.845996 -1.276337,-3.109461 0,-1.249398 0.432433,-2.288276 1.297227,-3.123529 0.864865,-0.82829 1.952839,-1.249468 3.257029,-1.249468 0.920642,0 1.848247,0.189558 2.796743,0.589636 0.104591,0.04917 0.230143,0.09123 0.348731,0.09123 0.425399,0 0.77413,-0.350912 0.77413,-0.779124 0,-0.329881 -0.278957,-0.638731 -0.495173,-0.722924 -1.269303,-0.498409 -2.441049,-0.744096 -3.501099,-0.744096 -1.736622,0 -3.201251,0.568605 -4.386923,1.712708 -1.185602,1.144103 -1.778473,2.54796 -1.778473,4.218536 0,1.052876 0.258066,2.035555 0.7742,2.934041 0.516063,0.905449 1.220489,1.614377 2.106244,2.133816 0.885755,0.512406 1.966765,0.77209 3.243102,0.77209 1.34604,0 2.573493,-0.252651 3.64754,-0.736992 0.313844,-0.119362 0.50917,-0.421178 0.50917,-0.736992 0.007,-0.421178 -0.341768,-0.77216 -0.7742,-0.77216 z"
     fill="#000000"
     id="path12"
     style="fill:#000000;stroke-width:0.703371" />
  <rect
     style="opacity:1;fill:none;fill-opacity:0.330645;stroke:#000000;stroke-width:0.803796"
     id="rect853"
     width="66.026474"
     height="66.026474"
     x="10.486763"
     y="10.486763"
     ry="4.5572348" />
  <text
     xml:space="preserve"
     style="font-style:normal;font-weight:normal;font-size:15.4588px;line-height:1.25;font-family:sans-serif;fill:#000000;fill-opacity:1;stroke:none;stroke-width:0.386469"
     x="-66.689301"
     y="41.666664"
     id="text857"><tspan
       sodipodi:role="line"
       id="tspan855"
       x="-66.689301"
       y="41.666664"
       style="font-style:normal;font-variant:normal;font-weight:normal;font-stretch:normal;font-family:'He\'s Dead Jim';-inkscape-font-specification:'He\'s Dead Jim';stroke-width:0.386469">EXPRESS</tspan></text>
</svg>
